<svg width="158" height="68" viewBox="0 0 158 68" fill="none" xmlns="http://www.w3.org/2000/svg">
<g clip-path="url(#clip0_6:29)">
<ellipse cx="41.0274" cy="35.6436" rx="32.5" ry="31" fill="white"/>
<path d="M28.5274 2.14365C17.9274 5.14365 8.62742 12.9436 4.22742 22.4436C1.12742 29.0436 1.32742 40.1436 4.42742 47.4436C7.52742 54.3436 16.5274 62.7436 24.2274 65.7436C32.3274 68.9436 45.6274 68.9436 53.7274 65.7436C61.3274 62.7436 69.6274 55.1436 73.2274 47.8436C76.9274 40.3436 77.0274 29.8436 73.6274 21.8436C70.5274 14.8436 61.5274 6.54365 53.8274 3.64365C46.2274 0.843645 35.6274 0.143645 28.5274 2.14365ZM59.5274 12.6436C61.4274 14.5436 61.5274 15.9436 61.4274 33.3436C61.4274 43.7436 61.1274 53.9436 60.7274 56.1436C60.0274 60.0436 59.8274 60.1436 55.7274 60.4436C52.0274 60.7436 51.3274 60.4436 50.8274 58.7436C50.3274 56.7436 49.5274 56.6436 39.5274 56.6436C29.5274 56.6436 28.7274 56.7436 28.2274 58.7436C27.7274 60.4436 27.0274 60.7436 23.3274 60.4436C19.2274 60.1436 19.0274 60.0436 18.3274 56.1436C17.9274 53.9436 17.6274 43.7436 17.6274 33.3436C17.5274 8.84365 15.7274 10.6436 39.5274 10.6436C56.2274 10.6436 57.6274 10.7436 59.5274 12.6436ZM16.5274 28.7436C16.5274 32.4436 16.1274 34.5436 15.5274 34.1436C13.7274 33.0436 14.3274 22.6436 16.2274 22.6436C16.4274 22.6436 16.5274 25.3436 16.5274 28.7436ZM64.5274 28.6436C64.5274 31.3436 64.1274 33.8436 63.5274 34.1436C62.9274 34.5436 62.5274 32.4436 62.5274 28.6436C62.5274 24.8436 62.9274 22.7436 63.5274 23.1436C64.1274 23.4436 64.5274 25.9436 64.5274 28.6436Z" fill="#B01A1A"/>
<path d="M28.5274 16.6436C28.5274 18.5436 29.2274 18.6436 40.0274 18.6436C50.8274 18.6436 51.5274 18.5436 51.5274 16.6436C51.5274 14.7436 50.8274 14.6436 40.0274 14.6436C29.2274 14.6436 28.5274 14.7436 28.5274 16.6436Z" fill="#B01A1A"/>
<path d="M22.9274 22.9436C22.6274 23.7436 22.5274 27.6436 22.7274 31.7436L23.0274 39.1436L38.4274 39.4436C49.1274 39.6436 54.2274 39.3436 55.2274 38.5436C56.2274 37.6436 56.5274 35.3436 56.3274 29.7436L56.0274 22.1436L39.7274 21.8436C26.7274 21.6436 23.4274 21.8436 22.9274 22.9436Z" fill="#B01A1A"/>
<path d="M23.5274 46.0436C20.8274 49.3436 25.3274 53.2436 28.3274 50.2436C29.6274 48.9436 29.7274 48.2436 28.9274 46.8436C27.4274 44.5436 25.1274 44.2436 23.5274 46.0436Z" fill="#B01A1A"/>
<path d="M50.5274 46.0436C47.8274 49.3436 52.3274 53.2436 55.3274 50.2436C56.6274 48.9436 56.7274 48.2436 55.9274 46.8436C54.4274 44.5436 52.1274 44.2436 50.5274 46.0436Z" fill="#B01A1A"/>
<path d="M82.208 12.2H89.36C91.664 12.2 93.464 12.696 94.76 13.688C96.056 14.68 96.704 16.144 96.704 18.08C96.704 20.016 96.056 21.448 94.76 22.376C93.48 23.304 91.68 23.768 89.36 23.768H87.8V28.352C87.8 28.528 87.736 28.68 87.608 28.808C87.48 28.936 87.328 29 87.152 29H82.208C82.032 29 81.88 28.936 81.752 28.808C81.624 28.68 81.56 28.528 81.56 28.352V12.848C81.56 12.672 81.624 12.52 81.752 12.392C81.88 12.264 82.032 12.2 82.208 12.2ZM87.68 16.664V19.328H89.36C89.648 19.328 89.904 19.224 90.128 19.016C90.352 18.792 90.464 18.48 90.464 18.08C90.464 17.68 90.376 17.344 90.2 17.072C90.024 16.8 89.744 16.664 89.36 16.664H87.68ZM103.558 29H99.2621C99.0861 29 98.9341 28.936 98.8061 28.808C98.6781 28.68 98.6141 28.528 98.6141 28.352V12.608C98.6141 12.432 98.6781 12.28 98.8061 12.152C98.9341 12.024 99.0861 11.96 99.2621 11.96H103.558C103.734 11.96 103.886 12.024 104.014 12.152C104.142 12.28 104.206 12.432 104.206 12.608V28.352C104.206 28.528 104.142 28.68 104.014 28.808C103.886 28.936 103.734 29 103.558 29ZM106.486 23.792V17.168C106.486 16.992 106.55 16.84 106.678 16.712C106.806 16.584 106.958 16.52 107.134 16.52H111.718C111.894 16.52 112.046 16.584 112.174 16.712C112.302 16.84 112.366 16.992 112.366 17.168V23.624C112.366 24.504 112.766 24.944 113.566 24.944C114.366 24.944 114.766 24.504 114.766 23.624V17.168C114.766 16.992 114.83 16.84 114.958 16.712C115.086 16.584 115.238 16.52 115.414 16.52H119.974C120.15 16.52 120.302 16.584 120.43 16.712C120.558 16.84 120.622 16.992 120.622 17.168V28.352C120.622 28.528 120.558 28.68 120.43 28.808C120.302 28.936 120.15 29 119.974 29H115.774C115.598 29 115.446 28.936 115.318 28.808C115.19 28.68 115.126 28.528 115.126 28.352V27.56C114.374 28.68 113.046 29.24 111.142 29.24C109.83 29.24 108.726 28.784 107.83 27.872C106.934 26.944 106.486 25.584 106.486 23.792ZM129.661 25.544C129.661 25.384 129.621 25.256 129.541 25.16C129.333 24.904 128.565 24.656 127.237 24.416C125.909 24.16 124.829 23.72 123.997 23.096C123.181 22.456 122.773 21.568 122.773 20.432C122.773 19.296 123.317 18.32 124.405 17.504C125.493 16.688 126.957 16.28 128.797 16.28C130.653 16.28 132.173 16.664 133.357 17.432C134.541 18.2 135.133 18.976 135.133 19.76C135.133 19.936 135.077 20.088 134.965 20.216C134.869 20.344 134.749 20.408 134.605 20.408H130.573C130.333 20.408 130.037 20.28 129.685 20.024C129.333 19.768 129.069 19.64 128.893 19.64C128.525 19.64 128.341 19.768 128.341 20.024C128.341 20.184 128.381 20.312 128.461 20.408C128.669 20.648 129.541 20.88 131.077 21.104C132.613 21.328 133.757 21.824 134.509 22.592C135.277 23.344 135.661 24.184 135.661 25.112C135.661 26.408 135.077 27.424 133.909 28.16C132.741 28.896 131.085 29.264 128.941 29.264C127.805 29.264 126.797 29.136 125.917 28.88C125.037 28.624 124.365 28.304 123.901 27.92C122.989 27.168 122.533 26.464 122.533 25.808C122.533 25.632 122.589 25.48 122.701 25.352C122.813 25.224 122.949 25.16 123.109 25.16H127.285C127.509 25.16 127.797 25.288 128.148 25.544C128.516 25.784 128.861 25.904 129.181 25.904C129.501 25.904 129.661 25.784 129.661 25.544ZM143.473 21.896V28.352C143.473 28.528 143.409 28.68 143.281 28.808C143.153 28.936 143.001 29 142.825 29H138.145C137.969 29 137.817 28.936 137.689 28.808C137.561 28.68 137.497 28.528 137.497 28.352V12.608C137.497 12.432 137.561 12.28 137.689 12.152C137.817 12.024 137.969 11.96 138.145 11.96H142.825C143.001 11.96 143.153 12.024 143.281 12.152C143.409 12.28 143.473 12.432 143.473 12.608V17.768C144.385 16.776 145.553 16.28 146.977 16.28C148.401 16.28 149.577 16.744 150.505 17.672C151.433 18.6 151.897 19.952 151.897 21.728V28.328C151.897 28.504 151.833 28.656 151.705 28.784C151.577 28.912 151.425 28.976 151.249 28.976H146.545C146.369 28.976 146.217 28.912 146.089 28.784C145.961 28.656 145.897 28.504 145.897 28.328V21.896C145.897 21.016 145.489 20.576 144.673 20.576C143.873 20.576 143.473 21.016 143.473 21.896ZM90.296 43.2C90.472 42.992 90.56 42.744 90.56 42.456C90.56 42.168 90.472 41.912 90.296 41.688C90.136 41.448 89.896 41.328 89.576 41.328H87.56V43.512H89.576C89.896 43.512 90.136 43.408 90.296 43.2ZM87.56 47.52V49.872H89.792C90.16 49.872 90.432 49.752 90.608 49.512C90.8 49.256 90.896 48.976 90.896 48.672V48.648C90.896 48.344 90.792 48.08 90.584 47.856C90.392 47.632 90.128 47.52 89.792 47.52H87.56ZM90.416 54H82.208C82.032 54 81.88 53.936 81.752 53.808C81.624 53.68 81.56 53.528 81.56 53.352V37.848C81.56 37.672 81.624 37.52 81.752 37.392C81.88 37.264 82.032 37.2 82.208 37.2H90.176C92.448 37.2 94.12 37.616 95.192 38.448C96.28 39.264 96.824 40.504 96.824 42.168V42.24C96.824 42.928 96.624 43.544 96.224 44.088C95.824 44.616 95.384 45 94.904 45.24C95.544 45.496 96.08 45.952 96.512 46.608C96.96 47.248 97.184 47.952 97.184 48.72C97.184 52.24 94.928 54 90.416 54ZM99.2206 48.792V42.168C99.2206 41.992 99.2846 41.84 99.4126 41.712C99.5406 41.584 99.6926 41.52 99.8686 41.52H104.453C104.629 41.52 104.781 41.584 104.909 41.712C105.037 41.84 105.101 41.992 105.101 42.168V48.624C105.101 49.504 105.501 49.944 106.301 49.944C107.101 49.944 107.501 49.504 107.501 48.624V42.168C107.501 41.992 107.565 41.84 107.693 41.712C107.821 41.584 107.973 41.52 108.149 41.52H112.709C112.885 41.52 113.037 41.584 113.165 41.712C113.293 41.84 113.357 41.992 113.357 42.168V53.352C113.357 53.528 113.293 53.68 113.165 53.808C113.037 53.936 112.885 54 112.709 54H108.509C108.333 54 108.181 53.936 108.053 53.808C107.925 53.68 107.861 53.528 107.861 53.352V52.56C107.109 53.68 105.781 54.24 103.877 54.24C102.565 54.24 101.461 53.784 100.565 52.872C99.6686 51.944 99.2206 50.584 99.2206 48.792ZM122.395 50.544C122.395 50.384 122.355 50.256 122.275 50.16C122.067 49.904 121.299 49.656 119.971 49.416C118.643 49.16 117.563 48.72 116.731 48.096C115.915 47.456 115.507 46.568 115.507 45.432C115.507 44.296 116.051 43.32 117.139 42.504C118.227 41.688 119.691 41.28 121.531 41.28C123.387 41.28 124.907 41.664 126.091 42.432C127.275 43.2 127.867 43.976 127.867 44.76C127.867 44.936 127.811 45.088 127.699 45.216C127.603 45.344 127.483 45.408 127.339 45.408H123.307C123.067 45.408 122.771 45.28 122.419 45.024C122.067 44.768 121.803 44.64 121.627 44.64C121.259 44.64 121.075 44.768 121.075 45.024C121.075 45.184 121.115 45.312 121.195 45.408C121.403 45.648 122.275 45.88 123.811 46.104C125.347 46.328 126.491 46.824 127.243 47.592C128.011 48.344 128.395 49.184 128.395 50.112C128.395 51.408 127.811 52.424 126.643 53.16C125.475 53.896 123.819 54.264 121.675 54.264C120.539 54.264 119.531 54.136 118.651 53.88C117.771 53.624 117.099 53.304 116.635 52.92C115.723 52.168 115.267 51.464 115.267 50.808C115.267 50.632 115.323 50.48 115.435 50.352C115.547 50.224 115.683 50.16 115.843 50.16H120.019C120.243 50.16 120.531 50.288 120.883 50.544C121.251 50.784 121.595 50.904 121.915 50.904C122.235 50.904 122.395 50.784 122.395 50.544Z" fill="white"/>
</g>
<defs>
<clipPath id="clip0_6:29">
<rect width="158" height="68" fill="white"/>
</clipPath>
</defs>
</svg>
